<?xml version="1.0"?>
<svg width="32" height="32" xmlns="http://www.w3.org/2000/svg" xmlns:svg="http://www.w3.org/2000/svg" clip-rule="evenodd" fill-rule="evenodd" stroke-linejoin="round" version="1.1" xml:space="preserve">
 <g class="layer">
  <title>Layer 1</title>
  <path d="m27,4.02c0,-1.66 -1.34,-3 -3,-3l-16.01,0c-1.66,0 -3,1.34 -3,3c0,5.16 0,18.85 0,24.01c0,1.65 1.34,3 3,3l16.01,0c1.66,0 3,-1.35 3,-3l0,-24.01zm-16.01,23l10,0c0.55,0 1,-0.45 1,-1c0,-0.55 -0.45,-1 -1,-1l-10,0c-0.55,0 -1,0.45 -1,1c0,0.55 0.45,1 1,1zm0,-3.99l10,0c0.55,0 1,-0.45 1,-1c0,-0.55 -0.45,-1 -1,-1l-10,0c-0.55,0 -1,0.45 -1,1c0,0.55 0.45,1 1,1zm3.08,-11.74c-2.37,0.8 -4.07,3.05 -4.08,5.69c0,0.55 0.45,1 1,1c0.55,0 1,-0.45 1,-1c0.01,-2.21 1.79,-4 4,-4c2.2,0 3.99,1.79 3.99,4c0,0.55 0.45,1 1,1c0.55,0 1,-0.45 1,-1c-0.01,-2.63 -1.7,-4.87 -4.05,-5.68c0.66,-0.55 1.08,-1.37 1.08,-2.3c0,-1.66 -1.35,-3 -3,-3c-1.66,0 -3,1.34 -3,3c0,0.92 0.41,1.74 1.06,2.29z" fill="#780000" id="svg_1"/>
 </g>
</svg>