<?xml version="1.0"?>
<svg width="16" height="16" xmlns="http://www.w3.org/2000/svg" xmlns:svg="http://www.w3.org/2000/svg" class="bi bi-code-slash">
 <g class="layer">
  <title>Layer 1</title>
  <path d="m10.48,1.65a0.5,0.5 0 1 0 -0.96,-0.3l-4,13a0.5,0.5 0 0 0 0.96,0.3l4,-13zm-5.63,2.5a0.5,0.5 0 0 1 0,0.7l-3.14,3.15l3.14,3.15a0.5,0.5 0 0 1 -0.7,0.7l-3.5,-3.5a0.5,0.5 0 0 1 0,-0.7l3.5,-3.5a0.5,0.5 0 0 1 0.7,0m6.3,0a0.5,0.5 0 0 0 0,0.7l3.14,3.15l-3.14,3.15a0.5,0.5 0 0 0 0.7,0.7l3.5,-3.5a0.5,0.5 0 0 0 0,-0.7l-3.5,-3.5a0.5,0.5 0 0 0 -0.7,0" fill="#780000" id="svg_1"/>
 </g>
</svg>