<?xml version="1.0"?>
<svg width="32" height="32" xmlns="http://www.w3.org/2000/svg" xmlns:svg="http://www.w3.org/2000/svg">

 <title>file_type_python</title>
 <g class="layer">
  <title>Layer 1</title>
  <path d="m15.88,2.1c-7.09,0 -6.65,3.07 -6.65,3.07l0,3.19l6.76,0l0,1l-9.45,0s-4.54,-0.56 -4.54,6.64s4.01,6.92 4.01,6.92l2.32,0l0,-3.36s-0.13,-4.02 3.9,-4.02l6.76,0s3.77,0.06 3.77,-3.65l0,-6.09s0.58,-3.71 -6.84,-3.71l0,0l-0.04,0.01zm-3.73,2.14a1.21,1.21 0 1 1 -1.18,1.24l0,-0.02a1.21,1.21 0 0 1 1.21,-1.21l0,0l-0.03,-0.01z" fill="#780000" id="svg_1"/>
  <path d="m16.09,29.91c7.1,0 6.65,-3.08 6.65,-3.08l0,-3.18l-6.76,0l0,-1l9.47,0s4.55,0.51 4.55,-6.66s-4.01,-6.91 -4.01,-6.91l-2.35,0l0,3.32s0.13,4.01 -3.9,4.01l-6.77,0s-3.77,-0.05 -3.77,3.66l0,6.13s-0.57,3.71 6.84,3.71l0.04,0l0.01,0zm3.73,-2.15a1.21,1.21 0 1 1 1.18,-1.24l0,0.03a1.21,1.21 0 0 1 -1.21,1.21l0.03,0z" fill="#780000" id="svg_2"/>
 </g>
</svg>