<?xml version="1.0"?>
<svg width="128" height="128" xmlns="http://www.w3.org/2000/svg" xmlns:svg="http://www.w3.org/2000/svg">
 <g class="layer">
  <title>Layer 1</title>
  <path d="m47.62,98.12s-4.77,2.77 3.39,3.71c9.9,1.13 14.95,0.97 25.85,-1.09c0,0 2.87,1.79 6.87,3.35c-24.44,10.47 -55.31,-0.61 -36.11,-5.97zm-2.99,-13.67s-5.35,3.96 2.82,4.81c10.57,1.09 18.91,1.18 33.36,-1.6c0,0 1.99,2.03 5.13,3.13c-29.54,8.64 -62.45,0.68 -41.31,-6.34z" fill="#780000" id="svg_1"/>
  <path d="m69.8,61.27c6.03,6.94 -1.58,13.17 -1.58,13.17s15.29,-7.89 8.27,-17.78c-6.56,-9.21 -11.59,-13.79 15.64,-29.58c0,0.01 -42.73,10.67 -22.33,34.19z" fill="#780000" id="svg_2"/>
  <path d="m102.12,108.23s3.53,2.91 -3.89,5.16c-14.1,4.27 -58.7,5.56 -71.09,0.17c-4.45,-1.94 3.9,-4.63 6.53,-5.19c2.74,-0.6 4.3,-0.49 4.3,-0.49c-4.95,-3.48 -32.01,6.85 -13.74,9.82c49.82,8.07 90.81,-3.64 77.89,-9.47zm-52.21,-37.94s-22.68,5.39 -8.03,7.35c6.19,0.83 18.52,0.64 30.01,-0.32c9.39,-0.79 18.81,-2.48 18.81,-2.48s-3.3,1.42 -5.7,3.05c-23.04,6.07 -67.54,3.24 -54.73,-2.95c10.83,-5.24 19.64,-4.65 19.64,-4.65zm40.7,22.75c23.42,-12.17 12.59,-23.86 5.03,-22.28c-1.85,0.38 -2.68,0.72 -2.68,0.72s0.69,-1.08 2,-1.55c14.96,-5.25 26.45,15.51 -4.82,23.73c0,0 0.36,-0.33 0.47,-0.62z" fill="#780000" id="svg_3"/>
  <path d="m76.49,1.59s12.97,12.97 -12.3,32.92c-20.27,16.01 -4.62,25.13 -0.01,35.56c-11.83,-10.67 -20.51,-20.07 -14.69,-28.82c8.55,-12.83 32.23,-19.05 27,-39.66z" fill="#780000" id="svg_4"/>
  <path d="m52.21,126.02c22.48,1.44 57,-0.8 57.82,-11.43c0,0 -1.57,4.03 -18.58,7.23c-19.18,3.61 -42.85,3.19 -56.88,0.87c0,0 2.87,2.38 17.64,3.33z" fill="#780000" id="svg_5"/>
 </g>
</svg>