<?xml version="1.0"?>
<svg width="16" height="16" xmlns="http://www.w3.org/2000/svg" xmlns:svg="http://www.w3.org/2000/svg" class="bi bi-linkedin">
 <g class="layer">
  <title>Layer 1</title>
  <path d="m0,1.15c0,-0.64 0.53,-1.15 1.18,-1.15l13.65,0c0.64,0 1.17,0.51 1.17,1.15l0,13.7c0,0.64 -0.53,1.15 -1.18,1.15l-13.64,0c-0.65,0 -1.18,-0.51 -1.18,-1.15l0,-13.7zm4.94,12.24l0,-7.22l-2.4,0l0,7.22l2.4,0zm-1.2,-8.21c0.84,0 1.36,-0.55 1.36,-1.25c-0.01,-0.71 -0.52,-1.24 -1.34,-1.24s-1.36,0.54 -1.36,1.24c0,0.7 0.52,1.25 1.33,1.25l0.01,0zm4.91,8.21l0,-4.03c0,-0.22 0.02,-0.43 0.08,-0.59c0.17,-0.43 0.57,-0.88 1.23,-0.88c0.87,0 1.22,0.67 1.22,1.64l0,3.86l2.4,0l0,-4.14c0,-2.22 -1.18,-3.25 -2.76,-3.25c-1.28,0 -1.85,0.7 -2.17,1.19l0,0.03l-0.02,0l0.02,-0.03l0,-1.02l-2.4,0c0.03,0.68 0,7.22 0,7.22l2.4,0z" fill="#780000" id="svg_1"/>
 </g>
</svg>