<?xml version="1.0"?>
<svg width="16" height="16" xmlns="http://www.w3.org/2000/svg" xmlns:svg="http://www.w3.org/2000/svg" class="bi bi-link-45deg">
 <g class="layer">
  <title>Layer 1</title>
  <path d="m4.71,6.54l-1.37,1.37a3,3 0 1 0 4.25,4.25l1.82,-1.83a3,3 0 0 0 -0.82,-4.83l-0.59,0.59a1,1 0 0 0 -0.15,0.2a2,2 0 0 1 0.86,3.33l-1.83,1.83a2,2 0 1 1 -2.83,-2.83l0.79,-0.79a4,4 0 0 1 -0.13,-1.29z" fill="#780000" id="svg_1"/>
  <path d="m6.59,4.67a3,3 0 0 0 0.82,4.83l0.78,-0.78a2,2 0 0 1 -0.9,-3.34l1.83,-1.83a2,2 0 1 1 2.83,2.83l-0.79,0.79c0.11,0.42 0.15,0.86 0.13,1.29l1.37,-1.37a3,3 0 1 0 -4.25,-4.25l-1.82,1.83z" fill="#780000" id="svg_2"/>
 </g>
</svg>