<?xml version="1.0"?>
<svg width="128" height="128" xmlns="http://www.w3.org/2000/svg" xmlns:svg="http://www.w3.org/2000/svg">
 <g class="layer">
  <title>Layer 1</title>
  <path d="m2,90.46l4.11,0l0,-16.23l6.36,14.15c0.75,1.71 1.78,2.31 3.79,2.31s3,-0.6 3.75,-2.31l6.36,-14.15l0,16.23l4.11,0l0,-16.2c0,-1.58 -0.63,-2.34 -1.93,-2.74c-3.12,-0.97 -5.22,-0.13 -6.17,1.98l-6.24,13.96l-6.04,-13.96c-0.91,-2.11 -3.04,-2.95 -6.16,-1.98c-1.31,0.4 -1.94,1.16 -1.94,2.74l0,16.2zm31.9,-13.21l4.11,0l0,8.94c-0.04,0.48 0.15,1.62 2.4,1.66c1.15,0.02 8.86,0 8.94,0l0,-10.64l4.11,0c0.02,0 0,14.51 0,14.57c0.02,3.58 -4.44,4.36 -6.5,4.42l-12.97,0l0,-2.76c0.02,0 12.96,0 12.99,-0.01c2.65,-0.27 2.33,-1.59 2.33,-2.03l0,-1.08l-8.73,0c-4.06,-0.04 -6.65,-1.81 -6.68,-3.85c0,-0.19 0.09,-9.13 0,-9.22z" fill="#780000" id="svg_1"/>
  <path d="m56.63,90.46l11.81,0c1.39,0 2.73,-0.29 3.8,-0.79c1.77,-0.82 2.64,-1.92 2.64,-3.37l0,-3c0,-1.19 -0.99,-2.3 -2.92,-3.03c-1.03,-0.4 -2.29,-0.61 -3.52,-0.61l-4.98,0c-1.66,0 -2.45,-0.5 -2.64,-1.6c-0.04,-0.14 -0.04,-0.24 -0.04,-0.37l0,-1.87c0,-0.11 0,-0.21 0.04,-0.35c0.19,-0.84 0.63,-1.08 2.09,-1.21l0.4,-0.02l11.73,0l0,-2.74l-11.54,0c-1.65,0 -2.52,0.1 -3.31,0.34c-2.45,0.76 -3.52,1.98 -3.52,4.08l0,2.4c0,1.84 2.09,3.42 5.61,3.79c0.4,0.03 0.79,0.05 1.18,0.05l4.27,0c0.16,0 0.32,0 0.44,0.03c1.3,0.11 1.85,0.34 2.25,0.82c0.24,0.23 0.31,0.47 0.31,0.73l0,2.4c0,0.29 -0.19,0.66 -0.59,0.97c-0.35,0.32 -0.95,0.53 -1.74,0.58l-0.43,0.03l-11.34,0l0,2.74zm43.88,-4.77c0,2.82 2.09,4.4 6.32,4.72c0.4,0.02 0.79,0.05 1.19,0.05l10.7,0l0,-2.74l-10.78,0c-2.41,0 -3.32,-0.61 -3.32,-2.06l0,-14.16l-4.11,0l0,14.19zm-23.01,0.14l0,-9.76c0,-2.48 1.75,-3.99 5.19,-4.46c0.35,-0.05 0.75,-0.08 1.11,-0.08l7.8,0c0.39,0 0.75,0.03 1.14,0.08c3.45,0.47 5.19,1.98 5.19,4.46l0,9.76c0,2.02 -0.74,3.09 -2.44,3.8l4.04,3.65l-4.77,0l-3.27,-2.96l-3.3,0.21l-4.39,0c-0.75,0 -1.55,-0.1 -2.42,-0.34c-2.61,-0.71 -3.88,-2.09 -3.88,-4.36zm4.44,-0.23c0,0.13 0.04,0.26 0.08,0.42c0.23,1.14 1.3,1.77 2.92,1.77l3.74,0l-3.43,-3.1l4.77,0l2.99,2.7c0.55,-0.29 0.91,-0.74 1.04,-1.32c0.04,-0.13 0.04,-0.26 0.04,-0.39l0,-9.37c0,-0.11 0,-0.24 -0.04,-0.37c-0.24,-1.06 -1.31,-1.66 -2.89,-1.66l-6.22,0c-1.82,0 -3,0.79 -3,2.03l0,9.29z" fill="#780000" id="svg_2"/>
  <path d="m122.34,66.95c-2.53,-0.07 -4.46,0.17 -6.11,0.86c-0.47,0.2 -1.21,0.21 -1.29,0.79c0.26,0.27 0.3,0.68 0.5,1.01c0.4,0.64 1.06,1.49 1.65,1.94c0.65,0.49 1.32,1.01 2.01,1.43c1.24,0.76 2.62,1.19 3.81,1.94c0.7,0.45 1.4,1.01 2.08,1.51c0.34,0.25 0.57,0.64 1.01,0.79l0,-0.07c-0.23,-0.29 -0.29,-0.7 -0.5,-1.01l-0.94,-0.93c-0.91,-1.21 -2.07,-2.28 -3.3,-3.16c-0.98,-0.7 -3.18,-1.66 -3.59,-2.8l-0.07,-0.07c0.69,-0.08 1.51,-0.33 2.15,-0.5c1.08,-0.29 2.04,-0.22 3.16,-0.51l1.51,-0.43l0,-0.29c-0.57,-0.57 -0.97,-1.34 -1.58,-1.86c-1.61,-1.37 -3.37,-2.74 -5.17,-3.88c-1,-0.63 -2.24,-1.04 -3.31,-1.58c-0.35,-0.18 -0.98,-0.27 -1.22,-0.58c-0.56,-0.71 -0.86,-1.61 -1.29,-2.44c-0.9,-1.73 -1.79,-3.63 -2.59,-5.45c-0.54,-1.25 -0.9,-2.48 -1.57,-3.6c-3.27,-5.36 -6.78,-8.59 -12.21,-11.77c-1.16,-0.68 -2.55,-0.95 -4.02,-1.29l-2.37,-0.15c-0.48,-0.2 -0.99,-0.79 -1.44,-1.08c-1.8,-1.13 -6.42,-3.61 -7.76,-0.35c-0.84,2.05 1.26,4.06 2.02,5.1c0.52,0.73 1.2,1.54 1.58,2.37c0.24,0.54 0.29,1.08 0.5,1.65c0.52,1.4 0.97,2.93 1.65,4.23c0.34,0.66 0.72,1.35 1.15,1.94c0.26,0.36 0.72,0.52 0.79,1.08c-0.45,0.62 -0.47,1.58 -0.72,2.37c-1.12,3.54 -0.7,7.94 0.93,10.56c0.5,0.8 1.68,2.52 3.31,1.86c1.42,-0.58 1.1,-2.37 1.51,-3.95c0.09,-0.35 0.03,-0.62 0.21,-0.86l0,0.07l1.29,2.59c0.96,1.54 2.66,3.15 4.1,4.24c0.74,0.56 1.33,1.53 2.29,1.86l0,-0.07l-0.07,0c-0.18,-0.29 -0.48,-0.41 -0.72,-0.65c-0.56,-0.55 -1.18,-1.23 -1.65,-1.86c-1.31,-1.78 -2.46,-3.72 -3.52,-5.75c-0.5,-0.96 -0.94,-2.03 -1.36,-3.01c-0.16,-0.38 -0.16,-0.96 -0.5,-1.15c-0.47,0.72 -1.15,1.3 -1.51,2.15c-0.57,1.36 -0.65,3.02 -0.86,4.74l-0.15,0.07c-1,-0.24 -1.35,-1.27 -1.72,-2.15c-0.94,-2.24 -1.11,-5.83 -0.29,-8.4c0.22,-0.67 1.18,-2.76 0.79,-3.38c-0.18,-0.61 -0.8,-0.97 -1.15,-1.44c-0.42,-0.58 -0.85,-1.34 -1.14,-2.01c-0.77,-1.74 -1.13,-3.69 -1.94,-5.45c-0.39,-0.85 -1.04,-1.7 -1.58,-2.45c-0.6,-0.83 -1.26,-1.44 -1.73,-2.44c-0.16,-0.35 -0.38,-0.92 -0.14,-1.29c0.08,-0.25 0.19,-0.35 0.43,-0.43c0.42,-0.32 1.58,0.11 2.01,0.29c1.15,0.47 2.11,0.93 3.09,1.58c0.47,0.31 0.94,0.91 1.51,1.07l0.64,0c1.02,0.23 2.15,0.07 3.09,0.36c1.67,0.51 3.17,1.3 4.53,2.16c4.14,2.61 7.52,6.33 9.83,10.77c0.38,0.71 0.54,1.39 0.87,2.15c0.66,1.53 1.49,3.1 2.15,4.6c0.66,1.49 1.3,2.99 2.23,4.23c0.48,0.66 2.37,1.01 3.23,1.37c0.6,0.25 1.58,0.52 2.15,0.86c1.09,0.66 2.14,1.44 3.16,2.15c0.51,0.37 2.08,1.15 2.16,1.8zm-32.1,-27.36c-0.53,-0.01 -0.9,0.06 -1.3,0.15l0,0.07l0.08,0c0.25,0.52 0.69,0.85 1,1.29l0.72,1.51l0.07,-0.07c0.45,-0.31 0.65,-0.82 0.65,-1.58c-0.18,-0.19 -0.21,-0.42 -0.36,-0.65c-0.21,-0.3 -0.6,-0.47 -0.86,-0.72z" fill="#780000" id="svg_3"/>
 </g>
</svg>