<?xml version="1.0"?>
<svg width="120" height="60" xmlns="http://www.w3.org/2000/svg" xmlns:svg="http://www.w3.org/2000/svg" preserveAspectRatio="xMidYMid">
 <g class="layer">
  <title>Layer 1</title>
  <path d="m20.59,47c-1.78,-1.4 -3.68,-2.74 -4.98,-4.63c-2.73,-3.33 -4.83,-7.2 -6.27,-11.24c-0.87,-2.64 -1.16,-5.47 -2.28,-8c-1.17,-1.84 0.2,-3.86 2.22,-4.44c0.89,-0.17 2.47,-1.02 0.57,-0.42c-1.7,1.26 -1.88,-1.13 -0.13,-1.3c1.2,-0.16 1.64,-1.13 1.23,-2.01c-1.28,-0.84 3.11,-1.76 0.9,-3.01c-2.3,-2.48 3.22,-2.96 1.86,-0.14c-0.33,2.17 3.86,-0.4 2.9,2.11c0.99,1.2 3.7,0.27 3.63,1.96c1.44,0.1 1.93,1.3 3.28,1.41c1.4,0.63 3.94,1.12 4.41,2.7c-1.39,1.1 -4.6,-2.27 -4.75,0.77c0.42,4.5 0.31,9.13 1.95,13.41c0.78,2.59 2.67,4.63 4.37,6.65c1.63,1.98 3.84,3.37 6.09,4.54c1.97,0.93 4.1,1.55 6.25,1.94c0.87,-0.67 2.41,-3.15 3.77,-2.11c0.07,1.18 -2.7,2.46 -0.13,2.33c1.5,-0.45 2.56,1.17 3.8,-0.29c1.15,1.35 4.76,-0.87 3.95,1.9c-1.1,0.7 -2.7,0.28 -3.81,1.26c-1.82,-0.9 -3.27,0.81 -5.29,0.6c-2.23,0.4 -4.51,0.56 -6.78,0.56c-3.72,-0.29 -7.52,-0.42 -11.06,-1.71c-2,-0.58 -3.94,-1.72 -5.69,-2.85l-0.01,0.01zm3.14,1.36c1.95,0.84 3.85,1.73 5.98,2c3.39,0.47 6.89,1.2 10.28,0.53c-1.53,-0.69 -3.12,0.27 -4.66,-0.49c-1.83,0.39 -3.8,-0.1 -5.67,-0.35c-2.13,-0.94 -4.42,-1.59 -6.41,-2.82c-2.49,-0.91 1.29,1.16 1.96,1.33c1.55,0.88 -1.7,-0.45 -2.17,-0.82c-1.3,-0.73 -1.47,-0.58 -0.13,0.16c0.27,0.16 0.53,0.33 0.82,0.46zm-3.71,-2.62c1.89,0.7 0,-1.32 -0.87,-1.2c-0.38,-0.66 -1.46,-1.08 -0.7,-1.44c-1.37,0.48 -1.44,-1.8 -2.08,-1.48c-1.45,-0.46 -0.57,-2.08 -2.29,-3.08c-0.16,-1.05 -1.72,-1.96 -2.22,-3.54c-0.22,-0.8 -1.76,-3.14 -0.81,-0.97c0.8,2.08 2.22,3.87 3.4,5.65c0.92,1.7 2,3.48 3.67,4.54c0.57,0.54 1.11,1.36 1.9,1.53l0,-0.01zm-5.43,-5.97c0.06,-0.28 0.34,0.62 0,0zm7.69,6.81c0.42,-0.19 -0.6,-0.24 0,0zm1.03,0.37c-0.11,-0.51 -0.47,0.3 0,0zm1.28,0.54c0.6,-0.58 -0.94,-0.37 0,0zm2.2,1.22c0.37,-0.54 -1.19,-0.2 0,0zm-4.22,-2.94c0.95,-0.61 -1.23,-0.01 0,0zm0.96,0.48c-0.03,-0.32 -0.34,0.15 0,0zm4.81,3c0.77,0.49 4.51,1.07 2.17,0.2c-0.39,0.08 -4.34,-1.12 -2.17,-0.2zm-7.63,-5.94c-0.08,-0.33 -1.2,-0.36 0,0zm2.24,1.3c0.58,-0.4 -1.2,-0.31 0,0zm1.88,1.16c0.83,-0.32 -1.36,-0.32 0,0zm-5.03,-3.45c0.9,0.69 3.65,0.1 1.4,-0.42c-1.04,-0.55 -3.36,-0.93 -1.78,0.33l0.39,0.09l-0.01,0zm6.3,3.85c0.38,-0.65 -1.58,-0.37 0,0zm-1.91,-1.53c2.21,0.63 -1.87,-1.4 -0.55,-0.23l0.29,0.13l0.26,0.1zm3.84,2.22c2.1,0.02 -1.9,-0.3 0,0zm-9.04,-5.76c-0.08,-0.4 -0.52,0.03 0,0zm12.59,7.76c0.06,-0.71 -0.68,0.52 0,0zm-9,-5.56c-0.13,-0.38 -0.65,-0.02 0,0zm-3.38,-2.44c1.2,-0.08 -1.65,-0.53 0,0zm-4,-2.6c-0.15,-0.58 -1.3,-1.04 0,0zm10.52,6.68c-0.22,-0.25 -0.1,0.06 0,0zm6.56,4.02c-0.02,-0.38 -0.36,0.15 0,0zm-7.13,-4.62c0.11,-0.49 -1.03,-0.15 0,0zm-4.88,-3.09c0.89,-0.1 -1.44,-0.61 0,0zm8.25,5.13c1.4,-0.55 -1.36,-0.27 0,0zm-4.29,-2.92c1.6,0.21 -1.92,-1.09 -0.35,-0.11l0.35,0.11zm5.6,3.45c1.5,-0.9 1.01,2.1 2.55,0.25c1.52,-1.11 -1.32,1.38 0.56,0.2c1.36,-0.91 3.36,0.43 4.63,0.86c0.9,-0.04 1.79,0.79 2.73,0.28c1.79,-0.48 -3.52,-0.71 -2.13,-1.57c-1.64,0.48 -2.86,-0.57 -3.66,-1.63c-1.85,-0.42 -3.98,-1.37 -4.9,-3c-0.38,-0.61 0.54,0.09 -0.33,-0.91c-1.1,-0.99 -1.66,-2.1 -2.41,-3.31c-0.9,-0.48 -0.99,-1.88 -1.08,-0.05c0,-1.15 -1.08,-1.93 -1.34,-1.61c-0.01,-1.1 1.16,-0.55 0.34,-1.37c-0.17,-1.16 -0.75,-2.36 -0.92,-3.66c-0.27,-0.62 -0.04,-1.97 -0.92,-0.55c-0.32,1.5 -0.11,-1.84 0.39,-0.74c0.66,-1.12 -0.24,-1 -0.27,-0.83c0.42,-0.95 0.27,-2.3 -0.11,-1.78c0.22,-1.01 0.36,-3.7 -0.34,-3.23c0.42,-1.05 0.8,-4.81 -1.04,-3.38c-0.75,0.01 -2.04,0.27 -2.66,0.58c1.92,1.06 -0.19,0.38 -0.97,0.21c-0.1,0.98 -0.88,0.56 -1.84,0.57c1.54,0.2 -0.75,1.58 -1.64,1.04c-1.15,0.55 1,1.92 0.03,2.34c0.12,0.64 -1.76,-0.23 -1.62,1.25c-1.11,-0.47 -0.15,1.75 0.41,1c1.9,0.51 1.33,1.69 1.38,2.8c-0.3,0.65 -1.53,-1.53 -0.27,-1.42c-1,-1.6 -1.09,-0.59 -1.92,0.16c-0.2,0.06 2.1,1.07 0.66,1.56c1.27,0.2 1.31,1.31 1.56,2.01c0.76,0.79 0.61,-0.88 1.52,0.08c-0.58,-0.85 -3.05,-2.4 -1.06,-1.9c-0.01,-0.85 -0.36,-1.54 0.25,-1.53c0.6,-1.09 -0.63,2.7 0.73,1.31c0.38,-0.16 0.47,-1.09 1.15,0.09c0.98,0.97 0.36,1.67 -1.03,0.78c0.24,0.85 1.85,1.15 1.55,2.47c0.32,1.16 0.77,0.73 1.16,0.66c0.31,1.13 0.48,0.3 0.5,-0.24c1.4,0.3 1.07,1.13 1.51,1.7c0.97,0.44 -1.38,-2.96 0.28,-1.02c1.75,1.58 0.65,2.24 -0.92,1.99c1,-0.08 1.32,1.34 2.56,1.29c1.13,0.54 1.9,2.61 -0.05,1.75c-0.68,-0.6 -3.08,-1.37 -1.12,-0.21c1.81,0.84 3.24,1.34 4.99,2.4c1.24,0.9 1.78,1.9 2.25,2.11c-1.05,0.5 -3.16,-0.4 -1.59,-0.67c-0.98,-0.18 -2.08,-0.67 -1.14,0.54c0.8,0.67 2.82,0.6 3.19,0.67c-0.31,0.68 -0.84,0.74 0.01,0.79c-0.95,0.5 0.3,0.58 0.4,0.87l-0.01,0zm-1.94,-5.47c-0.57,-0.6 -0.72,-1.73 -0.1,-0.75c0.32,0.13 1.02,1.84 0.1,0.75zm6.31,4c0.36,-0.02 0.01,0.28 0,0zm-7.22,-5.48c-0.02,-0.9 0.21,0.71 0,0zm-0.62,-0.84c-0.73,-1.4 0.91,0.4 0,0zm-7.6,-5.24c0.43,-0.11 0.2,0.73 0,0zm6.05,3.28c0.26,-0.98 0.31,0.82 0,0zm-4.27,-2.97c-0.3,-0.54 0.63,0.5 0,0zm3.66,1.17c-0.68,-1.54 0.49,-0.84 0.15,0.25l-0.15,-0.25zm-6.32,-4.21c-0.3,-0.51 -0.81,-1.99 -0.65,-2.44c0.15,0.74 1.57,3.17 0.7,1.01c-0.96,-1.8 1.15,0.59 1.36,1.04c0.1,0.45 -0.59,-0.12 -0.12,0.93c-0.86,-1.2 -0.51,0.66 -1.29,-0.54zm-1.95,-1.35c0.08,-1.17 0.45,0.81 0,0zm0.88,0.31c0.42,-0.89 0.7,1.23 0,0zm-2.11,-1.64c-0.73,-0.72 -1.26,-1.4 0.03,-0.45c0.5,0.02 -1.1,-1.51 0.12,-0.49c1.29,0.24 0.64,2.11 -0.15,0.94zm1.1,-0.03c0.42,-0.42 0.22,0.41 0,0zm0.68,0.22c-0.64,-1.2 0.78,0.5 0,0zm-1.36,-1.3c-2.11,-1.88 2.66,0.99 0.35,0.35l-0.35,-0.35zm6.06,3.52c-0.92,-0.55 -0.25,-3.86 0.07,-1.6c0.9,-0.28 -0.05,1.17 0.61,1.16c-0.1,0.92 -0.4,1.25 -0.68,0.44zm2.22,1.32c0.1,-1 0.19,0.68 0,0zm-0.4,-0.38c0.1,-0.43 0.01,0.5 0,0zm-7.5,-5.08c-1.36,-1.87 3.95,1.9 0.87,0.48c-0.32,-0.09 -0.7,-0.12 -0.87,-0.48zm4.31,2.29c-0.13,-1.58 0.29,0.26 0,0zm3.28,2.1c0.25,-0.9 0.02,0.59 0,0zm-7.38,-5.11c0.81,-0.17 3.34,1.42 1.01,0.46c-0.26,-0.29 -0.8,-0.16 -1.01,-0.46zm6.93,3.46c0.08,-1.62 0.48,-0.97 0,0.23l0,-0.23zm-6.33,-4.02c0.33,-0.48 -0.87,-2.18 0.17,-0.6c0.46,0.36 1.3,0.6 0.56,0.76c1.2,1.05 -0.3,0.28 -0.73,-0.15l0,-0.01zm5.99,3.5c0.22,-1.84 0.2,1.08 0,0zm-6.68,-5.21c0.26,-0.1 0.14,0.34 0,0zm1.57,0.93c0.4,-0.84 0.74,0.94 0,0zm4.4,2.45c0,-0.32 0.08,0.47 0,0zm-0.25,-0.56c-0.61,-1.51 0.57,0.8 0,0zm-0.38,-1c-0.1,-0.62 0.35,0.78 0,0zm0.6,-0.99c-0.42,-0.74 0.53,-3.26 0.64,-1.7c-0.45,1.22 -0.13,1.9 0.18,0.27c0.57,-1.29 -0.13,2.53 -0.82,1.43zm0.63,-3.75c0.18,-0.22 0.04,0.27 0,0zm-1.05,20.66c-0.25,-0.22 0.03,0.14 0,0zm2.16,1.09c1.2,0.3 1.19,-0.18 0.1,-0.33c-0.58,-0.55 -2.43,-1.12 -0.78,-0.07c0.1,0.28 0.46,0.27 0.67,0.4l0.01,0zm-4.27,-2.83c0.66,0.49 2.5,1.4 0.95,0.2c0.52,-0.61 -1,-0.93 -0.5,-1.34c-1.28,-0.79 -1.01,-0.72 -0.11,-0.7c-1.54,-0.7 0.22,-0.64 0.14,-0.99c-0.6,-0.12 -2.96,-1.05 -1.57,0.07c-1.41,-0.72 -0.34,0.27 -0.76,0.17c-1.45,-0.4 1.28,1.1 -0.23,0.73c0.83,0.65 2.23,1.68 0.35,0.69c-0.25,0.36 1.34,0.9 1.73,1.17zm2.26,1.3c2.75,0.88 -1.34,-1.09 0,0zm11.56,7c0.04,-0.54 -0.37,0.47 0,0zm1.2,0.5c0.64,-0.61 0.03,0.98 1.05,-0.15c0.01,-0.81 -0.03,-1.28 -1.17,-0.3c-0.32,0.17 -0.46,0.92 0.12,0.45zm-18.84,-11.82c-0.2,-0.77 -1.37,-0.76 0,0zm1.27,0.83c-0.47,-0.78 -1.68,-0.71 0,0zm7.22,4.35c0.7,0.63 3.23,0.46 0.85,0.08c-0.35,-0.52 -2.24,-0.4 -0.85,-0.08zm9.92,6.13c1.08,-0.9 -1.05,0.41 0,0zm2.26,1.55c0,-0.29 -0.47,0.13 0,0zm0,-0.4c1.2,-1.27 -1.16,0.08 0,0zm-23.79,-15.08c-1.03,-1.46 -0.64,-2.11 -1.63,-3.3c-0.19,-0.91 -1.69,-2.98 -0.78,-0.8c0.84,1.29 1.09,3.27 2.4,4.1l0.01,0zm23.41,14.67c2.2,-1.43 -0.91,-0.62 0,0zm1.69,0.66c1.11,-0.95 -0.7,-0.2 0,0zm-22.36,-14.34c0.32,-0.47 -0.82,-0.06 0,0zm22.01,13.88c1.07,-0.71 -0.25,-0.59 -0.2,0.06l0.2,-0.06zm-14.54,-9.16c-0.04,-0.47 -0.57,0.04 0,0zm0.89,0.52c-0.28,-0.58 -0.44,0.1 0,0zm15.37,9.11c1.37,-1 -0.83,-0.2 -0.29,0.19l0.29,-0.19zm-0.53,-0.25c1.12,-0.94 -1.18,0.41 0,0zm2.69,1.79c0.75,-0.51 -0.92,-0.16 0,0zm-25.2,-16.22c1.01,0.23 4.02,2.48 2.24,0.16c-0.9,-0.27 -0.36,-2.5 -1.29,-2.11c0.62,1.05 0.51,1.49 -0.8,0.83c-1.64,-0.8 -0.92,0.4 -0.6,0.73c-0.44,0.1 0.58,0.38 0.45,0.4l0,-0.01zm-4.59,-3.62c0.18,-0.75 -1.66,-4.1 -0.87,-1.68c0.29,0.51 0.26,1.47 0.87,1.68zm8.42,5.2c-0.52,-0.43 -0.02,-0.06 0,0zm1.28,0.3c0,-0.8 -1.4,-0.32 0,0zm11.06,6.97c-0.2,-0.54 -0.84,-0.01 0,0zm0.53,0.39c-0.08,-0.31 -0.31,0.06 0,0zm4.38,2.75c0.42,-0.3 -0.53,-0.04 0,0zm-23.37,-15.03c1.2,-0.46 -1.3,-0.33 0,0zm17.5,11.02c-0.02,-0.78 -0.77,0.2 0,0zm-17.97,-12.13c0.77,-0.26 -0.72,-0.17 0,0zm2.25,1.1c-0.02,-0.25 -0.24,0.1 0,0zm27.41,16.81c1,-0.2 3.27,0.51 3.63,-0.26c-1.2,-0.03 -4.18,-0.86 -4.32,0.19l0.26,0.04l0.43,0.03zm-26.7,-16.64c0.02,-0.8 -0.62,-0.03 0,0zm-5.9,-4.1c-0.27,-1.5 -1.02,-0.23 0,0zm1.4,0.36c0.02,-0.49 -1.3,-0.44 0,0zm0.81,0.39c-0.24,-0.2 -0.18,0.24 0,0zm5.07,3.25c0.24,-0.22 -0.57,-0.16 0,0zm-5.62,-4.14c-0.14,-1.14 -1.63,-0.17 0,0zm-2.9,-1.88c-0.04,-0.52 -0.28,0.2 0,0zm0.42,-0.32c-0.07,-0.62 -0.37,0.08 0,0zm2.38,1.42c1,-0.4 -1.84,-0.82 -0.21,-0.08l0.21,0.08zm31.79,19.63c0.65,-0.6 -0.81,-0.18 0,0zm3.85,2c0.25,-0.76 -0.65,0.1 0,0zm-35.4,-22.88c0.1,-0.73 -0.8,0.15 0,0zm-3.38,-2.26c-0.18,-1.04 -0.16,-2.87 1.58,-2.25c-2.32,0.46 1.6,2.88 1.1,0.97c0.97,0.05 1.9,-0.58 1.39,0.37c1.92,-0.2 3.25,-1.88 5.11,-1.64c1.44,-0.2 3.02,-0.34 4.58,-0.92c1.28,-0.1 2.51,-1.47 1.8,-2.29c-1.75,-0.15 -3.57,0.07 -5.5,0.45c-2.14,0.45 -4.08,1.29 -6.24,1.65c-2.11,0.29 0.42,0.78 -0.18,0.9c-1.1,0.38 1.3,0.64 -0.14,1.04c-0.9,-0.17 -1.83,-0.48 -1.45,-1.42c-2.01,0.26 -3.78,1.1 -2.19,3.15l0.12,0l0.02,-0.01zm4.85,-2.47c0.47,-1.74 2.53,1.43 0.77,0.23c-0.2,-0.16 -0.55,-0.29 -0.77,-0.23zm0.09,-0.85c0.68,-0.5 0.36,0.29 0,0zm0.87,0.02c0.06,-0.8 1.98,0.42 0.31,0.29l-0.31,-0.29zm1.18,-0.48c0.43,-0.5 0.13,0.45 0,0zm0.3,-0.2c0.72,-0.87 4.08,-0.55 1.62,-0.09c-0.66,-0.49 -1.16,0.3 -1.62,0.09zm4.38,-0.68c-0.1,-2.36 2.18,0.84 0,0zm1.25,0c0.45,-1.2 1.76,-0.48 0.2,-0.24c0.03,0.12 -0.05,0.61 -0.2,0.24zm-10.04,6.31c1.36,-0.83 -1.44,-0.72 0,0zm1.01,0.28c0.48,-0.5 -1.04,-0.2 0,0zm-2.93,-2.09c0.78,-0.6 -0.92,-0.23 0,0zm40.1,25.09c0.02,-0.7 -0.59,0.3 0,0zm-4.08,-2.78c0.12,-0.8 -0.52,0.07 0,0zm5.2,3.05c1.08,0 3.29,-0.34 0.93,-0.34c-0.37,0.06 -2.16,0.04 -0.93,0.34zm-37.39,-23.76c0.88,-0.06 1.38,-0.97 -0.17,-0.91c-2.39,-0.25 2.1,0.82 -0.3,0.51c-0.33,0.21 0.45,0.46 0.47,0.4zm0.78,0.39c-0.1,-0.56 -0.28,0.3 0,0zm0.91,-2.44c0.38,-0.48 -0.52,-0.13 0,0zm-2.92,-4.88c1.57,-0.53 3.7,-1.13 4.45,0.26c-0.75,-0.9 -0.3,-1.8 0.41,-0.47c1.01,1.34 1.5,-0.6 0.86,-1.06c0.74,0.92 1.59,1.36 0.5,0.06c1.2,-1.43 -2.38,0.19 -3.2,0.17c-0.4,0.17 -4.03,0.93 -3.02,1.04zm0.92,-1.76c0.9,-0.67 3.1,0.4 1.68,-0.67c-0.13,-0.12 -3.08,0.81 -1.68,0.67zm3.26,0.14c1.05,0.02 -0.45,-1.41 0.8,-0.76c-0.2,-0.67 -1.45,-0.79 -2.06,-1.06c-0.35,0.6 0.7,1.82 1.27,1.82l-0.01,0zm-2.68,-2.96c0.36,-0.5 -0.64,0.25 0,0zm1.33,0.32c1.69,-0.23 -0.43,-0.73 -0.34,-0.02l0.34,0.02zm-2.49,-1.95c-1.18,-1.55 2.24,0.26 1.03,-1.36c-1.02,-0.81 -2,0.9 -1.03,1.36zm15.23,8.21c0.55,-0.97 -2.24,-1.3 -0.36,-0.34c0.17,0.05 0.13,0.4 0.36,0.34zm28.01,0.25c-0.19,0.74 -0.3,1.98 -0.35,3.7c0,0.34 -0.15,0.51 -0.46,0.51s-0.52,-0.15 -0.64,-0.44c-0.33,-0.81 -0.64,-1.37 -0.94,-1.69c-0.35,-0.37 -0.82,-0.6 -1.4,-0.67c-0.63,-0.1 -2.19,-0.15 -4.69,-0.15c-0.57,0 -0.94,0.06 -1.12,0.18c-0.1,0.08 -0.16,0.24 -0.16,0.49l0,7.48c0,0.25 0.16,0.37 0.47,0.36l4.26,-0.2c0.36,-0.04 0.61,-0.16 0.73,-0.35s0.25,-0.7 0.37,-1.5c0.08,-0.44 0.34,-0.6 0.78,-0.5c0.37,0.08 0.53,0.25 0.48,0.5c-0.31,1.5 -0.41,3.45 -0.3,5.84c0.01,0.29 -0.17,0.44 -0.54,0.47c-0.31,0.03 -0.5,-0.14 -0.58,-0.5c-0.28,-1.37 -0.82,-2.1 -1.6,-2.2s-2.04,-0.14 -3.79,-0.14c-0.19,0 -0.29,0.07 -0.29,0.21l0,7.42c0,0.55 0.2,0.93 0.6,1.12c0.32,0.17 1,0.32 2.06,0.45c0.54,0.06 0.77,0.29 0.7,0.7c-0.07,0.36 -0.55,0.51 -1.45,0.43c-2.61,-0.2 -4.76,-0.2 -6.45,0.03c-0.48,0.07 -0.7,-0.12 -0.7,-0.57c0,-0.29 0.23,-0.45 0.7,-0.5c1.08,-0.12 1.61,-1.07 1.61,-2.84l0,-14.12c0,-0.72 -0.13,-1.28 -0.38,-1.67s-0.74,-0.75 -1.45,-1.06c-0.44,-0.2 -0.6,-0.47 -0.49,-0.81c0.05,-0.21 0.14,-0.33 0.26,-0.35c0.1,-0.03 0.4,-0.01 0.88,0.07c0.69,0.1 2.32,0.16 4.9,0.16l7.87,-0.19c0.73,-0.05 1.1,0.01 1.1,0.18c0,0.04 -0.01,0.08 -0.02,0.13l0.03,0.02zm10.7,20.94c0,0.44 -0.25,0.63 -0.74,0.58c-1.52,-0.15 -3.4,-0.12 -5.64,0.06c-0.45,0.05 -0.73,0.03 -0.84,-0.03s-0.15,-0.25 -0.15,-0.54c0,-0.27 0.3,-0.49 0.89,-0.67s0.9,-0.73 0.9,-1.63l0,-14.92c0,-0.9 -0.13,-1.55 -0.38,-1.97s-0.72,-0.74 -1.36,-0.97c-0.34,-0.12 -0.52,-0.29 -0.52,-0.51c0,-0.33 0.25,-0.58 0.75,-0.75c0.74,-0.24 1.52,-0.61 2.32,-1.12c0.66,-0.39 1.08,-0.59 1.26,-0.59c0.4,0 0.6,0.28 0.6,0.84a201.59,201.59 0 0 0 -0.07,1.65l-0.03,3.22l0.06,14.73c0,0.67 0.17,1.15 0.5,1.46s0.89,0.5 1.7,0.6c0.49,0.05 0.74,0.24 0.74,0.56l0.01,0zm14.92,-0.97c0,0.23 -0.42,0.58 -1.26,1.04s-1.52,0.7 -2.02,0.7c-0.43,0 -0.81,-0.2 -1.14,-0.62s-0.56,-0.63 -0.69,-0.63c-0.1,0 -0.62,0.23 -1.57,0.68s-1.9,0.67 -2.85,0.67c-0.9,0 -1.66,-0.26 -2.26,-0.8c-0.66,-0.58 -1,-1.37 -1,-2.37c0,-1.9 2.17,-3.27 6.53,-4.1c0.75,-0.14 1.13,-0.45 1.14,-0.91l0.03,-1.05c0.07,-1.81 -0.73,-2.71 -2.39,-2.71c-0.47,0 -0.92,0.42 -1.35,1.27s-1.03,1.3 -1.82,1.37c-0.9,0.09 -1.35,-0.29 -1.35,-1.14c0,-0.53 0.67,-1.14 2.01,-1.85c1.41,-0.73 2.76,-1.1 4.06,-1.1c2.23,0 3.34,1.06 3.31,3.18l-0.06,6.8c-0.01,0.71 0.29,1.07 0.9,1.07c0.12,0 0.36,-0.03 0.7,-0.08l0.59,-0.09c0.32,0 0.48,0.22 0.48,0.65l0.01,0.02zm-5.08,-3.76c0.01,-0.28 -0.05,-0.46 -0.2,-0.55s-0.36,-0.1 -0.65,-0.05c-2.65,0.48 -3.98,1.34 -3.98,2.6s0.69,1.9 2.06,1.9c0.55,0 1.12,-0.1 1.7,-0.31c0.69,-0.25 1.03,-0.54 1.03,-0.88l0.03,-2.7l0.01,-0.01zm17.34,1.87c0,1.17 -0.45,2.09 -1.34,2.78s-2.12,1.02 -3.67,1.02a14.86,14.86 0 0 1 -3.11,-0.33c-0.9,-0.2 -1.4,-0.38 -1.55,-0.54c-0.08,-0.16 -0.13,-0.91 -0.13,-2.26c0,-0.59 0.13,-0.89 0.4,-0.91c0.26,-0.03 0.5,0.1 0.67,0.43c0.83,1.44 2.16,2.16 4,2.16c1.55,0 2.32,-0.54 2.32,-1.62c0,-0.47 -0.17,-0.87 -0.53,-1.19c-0.38,-0.36 -1.13,-0.79 -2.24,-1.27c-1.61,-0.71 -2.68,-1.34 -3.22,-1.88c-0.58,-0.57 -0.87,-1.34 -0.87,-2.3c0,-1.19 0.46,-2.1 1.37,-2.77c0.85,-0.64 1.98,-0.96 3.4,-0.96a12.78,12.78 0 0 1 2.44,0.22c0.79,0.14 1.2,0.32 1.24,0.53c0.08,0.61 0.27,1.5 0.54,2.67c0.03,0.14 -0.12,0.26 -0.46,0.35c-0.37,0.07 -0.61,0.01 -0.73,-0.18c-0.87,-1.42 -1.97,-2.13 -3.3,-2.13c-1.5,0 -2.26,0.48 -2.26,1.45c0,0.54 0.21,0.97 0.6,1.29c0.36,0.27 1.22,0.7 2.56,1.28c1.41,0.61 2.36,1.15 2.87,1.64c0.66,0.62 1,1.47 1,2.52zm19.41,2.89c0,0.38 -0.26,0.6 -0.78,0.6l-3.02,0.16c-0.61,0.12 -1.05,0.05 -1.32,-0.23c-1.74,-1.87 -3.21,-3.83 -4.42,-5.87c-0.1,-0.18 -0.22,-0.27 -0.38,-0.27c-0.19,0 -0.5,0.17 -0.97,0.5c-0.52,0.28 -0.78,0.69 -0.78,1.22l0.04,1.62c0.02,0.7 0.19,1.16 0.52,1.38c0.23,0.16 0.77,0.28 1.6,0.37c0.52,0.06 0.78,0.26 0.78,0.57c0,0.26 -0.04,0.4 -0.12,0.47s-0.3,0.08 -0.66,0.04c-1.1,-0.1 -2.95,-0.04 -5.57,0.17c-0.66,0.05 -1.02,-0.03 -1.07,-0.25c-0.03,-0.08 -0.04,-0.19 -0.04,-0.33c0,-0.34 0.34,-0.6 1.01,-0.77c0.61,-0.16 0.91,-0.87 0.91,-2.13l0,-14.42c0,-0.9 -0.09,-1.53 -0.27,-1.88c-0.24,-0.45 -0.75,-0.8 -1.52,-1.06c-0.36,-0.12 -0.54,-0.3 -0.54,-0.5c0,-0.32 0.26,-0.56 0.78,-0.74a10.53,10.53 0 0 0 2.36,-1.14c0.6,-0.39 0.98,-0.59 1.12,-0.59c0.45,0 0.67,0.28 0.67,0.86c0,-0.08 0,0.46 -0.01,1.63l-0.02,3.23l0.03,10.33c0,0.28 0.08,0.42 0.23,0.42c0.17,0 0.42,-0.14 0.76,-0.42l3.37,-2.81c0.26,-0.27 0.39,-0.49 0.39,-0.66c0,-0.29 -0.44,-0.5 -1.33,-0.62c-0.39,-0.05 -0.57,-0.26 -0.55,-0.65c0.04,-0.38 0.23,-0.55 0.58,-0.49c0.79,0.1 1.95,0.17 3.46,0.18l3.15,0.02c0.34,0.01 0.5,0.21 0.5,0.6c0,0.37 -0.27,0.57 -0.8,0.6c-0.85,0.03 -1.65,0.22 -2.4,0.57c-1.04,0.48 -2.16,1.31 -3.35,2.5c-0.08,0.07 -0.13,0.15 -0.13,0.25c0,0.15 0.19,0.52 0.56,1.11c1.38,2.1 2.68,3.66 3.9,4.73c0.78,0.67 1.51,1.01 2.19,1.01c0.5,0 0.82,0.03 0.94,0.1s0.18,0.26 0.18,0.57l0.02,0.02z" fill="#780000" id="svg_1"/>
 </g>
</svg>