<?xml version="1.0"?>
<svg width="24" height="24" xmlns="http://www.w3.org/2000/svg" xmlns:svg="http://www.w3.org/2000/svg">
 <title>Spring Boot</title>
 <g class="layer">
  <title>Layer 1</title>
  <path d="m23.69,10.71l-4.73,-8.19c-0.41,-0.71 -1.41,-1.29 -2.24,-1.29l-9.45,0c-0.82,0 -1.83,0.58 -2.24,1.29l-4.72,8.19c-0.41,0.71 -0.41,1.87 0,2.58l4.72,8.19c0.41,0.71 1.42,1.29 2.24,1.29l9.46,0c0.82,0 1.82,-0.58 2.24,-1.29l4.72,-8.19c0.41,-0.71 0.41,-1.87 0,-2.58zm-12.71,-4.96c0,-0.53 0.43,-0.97 0.97,-0.97s0.97,0.44 0.97,0.97l0,5.83c0,0.53 -0.43,0.97 -0.97,0.97s-0.97,-0.44 -0.97,-0.97l0,-5.83zm0.97,12.43c-3.64,0 -6.61,-2.96 -6.61,-6.6c0.01,-2.09 1,-4.06 2.67,-5.31a0.87,0.87 0 0 1 1.22,0.18a0.87,0.87 0 0 1 -0.18,1.22c-2.16,1.6 -2.62,4.65 -1.01,6.81c1.6,2.17 4.66,2.62 6.82,1.01c1.24,-0.92 1.97,-2.37 1.97,-3.91a4.9,4.9 0 0 0 -1.99,-3.93c-0.39,-0.28 -0.47,-0.83 -0.18,-1.21c0.28,-0.39 0.82,-0.47 1.21,-0.19c1.69,1.25 2.68,3.23 2.69,5.33c0,3.64 -2.97,6.6 -6.61,6.6z" fill="#780000" id="svg_1"/>
 </g>
</svg>