<?xml version="1.0"?>
<svg width="24" height="24" xmlns="http://www.w3.org/2000/svg" xmlns:svg="http://www.w3.org/2000/svg">
 <title>XAMPP</title>
 <g class="layer">
  <title>Layer 1</title>
  <path d="m16.79,11.92c0.12,0.05 0.23,0.08 0.34,0.13c0.45,0.2 0.71,0.55 0.74,1.05c0.05,0.63 0.05,1.27 0.01,1.9c-0.05,0.73 -0.73,1.29 -1.49,1.27c-0.73,-0.02 -1.37,-0.62 -1.39,-1.34c-0.02,-0.44 -0.01,-0.88 -0.01,-1.33c0,-0.23 0,-0.24 -0.24,-0.24c-1.37,0 -2.73,0.01 -4.09,0c-0.89,-0.01 -1.42,0.48 -1.47,1.46c-0.02,0.38 -0.1,0.73 -0.36,1.02c-0.4,0.45 -0.9,0.6 -1.47,0.46c-0.56,-0.13 -0.87,-0.52 -1.04,-1.05c-0.12,-0.36 -0.05,-0.73 0.01,-1.09c0.34,-1.8 1.37,-3.01 3.13,-3.55c0.36,-0.12 0.73,-0.17 1.1,-0.17c0.94,0 1.88,0 2.82,0c0.13,0 0.26,-0.01 0.39,-0.02c0.7,-0.05 1.17,-0.51 1.22,-1.35c0,-0.07 0,-0.13 0,-0.2c0.01,-0.79 0.61,-1.39 1.39,-1.42c0.79,-0.03 1.44,0.52 1.5,1.32c0.07,1.08 -0.27,2.04 -0.92,2.9c-0.06,0.08 -0.14,0.15 -0.17,0.25zm-8.54,-1.48c-0.26,-0.01 -0.57,0.01 -0.88,-0.04c-0.54,-0.09 -0.88,-0.39 -1.02,-0.92c-0.16,-0.57 -0.1,-1.09 0.35,-1.52c0.45,-0.43 0.99,-0.56 1.59,-0.32c0.51,0.22 0.85,0.74 0.89,1.3c0.02,0.44 0,0.89 0,1.33c0,0.12 -0.04,0.17 -0.16,0.17c-0.24,-0.01 -0.48,0 -0.77,0zm13.43,-10.44l-19.36,0c-1.22,0 -2.2,0.99 -2.2,2.2l0,19.32c0,1.37 1.11,2.48 2.48,2.48l18.8,0c1.37,0 2.48,-1.11 2.48,-2.48l0,-19.32c0,-1.21 -0.98,-2.2 -2.2,-2.2zm-1.55,12.47c0.51,0.81 0.73,1.69 0.67,2.66c-0.11,1.89 -1.41,3.47 -3.25,3.92c-2.58,0.62 -4.56,-0.93 -5.23,-2.8c-0.11,-0.3 -0.16,-0.62 -0.23,-0.98c-0.06,0.41 -0.11,0.79 -0.26,1.13c-0.7,1.62 -1.88,2.6 -3.66,2.8c-2.11,0.23 -4.05,-1.07 -4.64,-3.08c-0.25,-0.87 -0.17,-1.75 -0.06,-2.63c0.08,-0.65 0.32,-1.27 0.63,-1.85c0.06,-0.1 0.06,-0.18 -0.01,-0.28c-0.56,-0.85 -0.78,-1.78 -0.7,-2.79c0.04,-0.53 0.17,-1.05 0.42,-1.53c0.71,-1.41 2.28,-2.61 4.38,-2.41c1.85,0.17 3.56,1.77 3.83,3.56c0.02,0.09 0.04,0.18 0.07,0.31c0.04,-0.24 0.08,-0.44 0.12,-0.63c0.34,-1.63 1.94,-3.34 4.2,-3.36c2.29,-0.02 3.99,1.77 4.31,3.44c0.17,0.89 0.09,1.78 -0.1,2.67c-0.12,0.51 -0.31,1.01 -0.53,1.49c-0.06,0.13 -0.05,0.24 0.04,0.36z" fill="#780000" id="svg_1"/>
 </g>
</svg>